<mxfile host="app.diagrams.net" modified="2024-04-23T14:41:00.909Z" agent="Mozilla/5.0 (Windows NT 10.0; Win64; x64) AppleWebKit/537.36 (KHTML, like Gecko) Chrome/122.0.0.0 Safari/537.36" etag="oCyuabpeDxH8RGK98eCd" version="24.2.5" type="device">
  <diagram name="Page-1" id="0783ab3e-0a74-02c8-0abd-f7b4e66b4bec">
    <mxGraphModel dx="3182" dy="1307" grid="1" gridSize="10" guides="1" tooltips="1" connect="1" arrows="1" fold="1" page="1" pageScale="1" pageWidth="850" pageHeight="1100" background="none" math="0" shadow="0">
      <root>
        <mxCell id="0" />
        <mxCell id="1" parent="0" />
        <mxCell id="1c1d494c118603dd-4" value="Диаграмма деятельности" style="swimlane;html=1;startSize=20;fontSize=14;" parent="1" vertex="1">
          <mxGeometry x="-845" width="840" height="1100" as="geometry" />
        </mxCell>
        <mxCell id="1c1d494c118603dd-27" style="edgeStyle=orthogonalEdgeStyle;rounded=0;html=1;labelBackgroundColor=none;startArrow=none;startFill=0;startSize=5;endArrow=classicThin;endFill=1;endSize=5;jettySize=auto;orthogonalLoop=1;strokeWidth=1;fontFamily=Verdana;fontSize=14;" parent="1c1d494c118603dd-4" source="60571a20871a0731-4" target="60571a20871a0731-8" edge="1">
          <mxGeometry relative="1" as="geometry" />
        </mxCell>
        <mxCell id="60571a20871a0731-4" value="" style="ellipse;whiteSpace=wrap;html=1;rounded=0;shadow=0;comic=0;labelBackgroundColor=none;strokeWidth=1;fillColor=#000000;fontFamily=Verdana;fontSize=14;align=center;" parent="1c1d494c118603dd-4" vertex="1">
          <mxGeometry x="400" y="40" width="40" height="40" as="geometry" />
        </mxCell>
        <mxCell id="Nml4itM5zu7aC6ovKBKi-30" style="edgeStyle=orthogonalEdgeStyle;rounded=0;orthogonalLoop=1;jettySize=auto;html=1;exitX=0.5;exitY=1;exitDx=0;exitDy=0;fontSize=14;" edge="1" parent="1c1d494c118603dd-4" source="60571a20871a0731-8">
          <mxGeometry relative="1" as="geometry">
            <mxPoint x="419.8333333333335" y="200" as="targetPoint" />
          </mxGeometry>
        </mxCell>
        <mxCell id="60571a20871a0731-8" value="Открываем аудиоплеер" style="rounded=1;whiteSpace=wrap;html=1;shadow=0;comic=0;labelBackgroundColor=none;strokeWidth=1;fontFamily=Verdana;fontSize=14;align=center;arcSize=50;" parent="1c1d494c118603dd-4" vertex="1">
          <mxGeometry x="360" y="120" width="120" height="50" as="geometry" />
        </mxCell>
        <mxCell id="60571a20871a0731-5" value="" style="shape=mxgraph.bpmn.shape;html=1;verticalLabelPosition=bottom;labelBackgroundColor=#ffffff;verticalAlign=top;perimeter=ellipsePerimeter;outline=end;symbol=terminate;rounded=0;shadow=0;comic=0;strokeWidth=1;fontFamily=Verdana;fontSize=14;align=center;" parent="1c1d494c118603dd-4" vertex="1">
          <mxGeometry x="400" y="1040" width="40" height="40" as="geometry" />
        </mxCell>
        <mxCell id="Nml4itM5zu7aC6ovKBKi-53" style="edgeStyle=orthogonalEdgeStyle;rounded=0;orthogonalLoop=1;jettySize=auto;html=1;exitX=0.25;exitY=1;exitDx=0;exitDy=0;entryX=0.5;entryY=0;entryDx=0;entryDy=0;fontSize=14;" edge="1" parent="1c1d494c118603dd-4" source="Nml4itM5zu7aC6ovKBKi-31" target="Nml4itM5zu7aC6ovKBKi-32">
          <mxGeometry relative="1" as="geometry">
            <Array as="points">
              <mxPoint x="383" y="220" />
              <mxPoint x="80" y="220" />
            </Array>
          </mxGeometry>
        </mxCell>
        <mxCell id="Nml4itM5zu7aC6ovKBKi-54" style="edgeStyle=orthogonalEdgeStyle;rounded=0;orthogonalLoop=1;jettySize=auto;html=1;exitX=0.75;exitY=1;exitDx=0;exitDy=0;entryX=0.5;entryY=0;entryDx=0;entryDy=0;fontSize=14;" edge="1" parent="1c1d494c118603dd-4" source="Nml4itM5zu7aC6ovKBKi-31" target="Nml4itM5zu7aC6ovKBKi-51">
          <mxGeometry relative="1" as="geometry">
            <Array as="points">
              <mxPoint x="457" y="220" />
              <mxPoint x="760" y="220" />
            </Array>
          </mxGeometry>
        </mxCell>
        <mxCell id="Nml4itM5zu7aC6ovKBKi-55" style="edgeStyle=orthogonalEdgeStyle;rounded=0;orthogonalLoop=1;jettySize=auto;html=1;exitX=0.5;exitY=1;exitDx=0;exitDy=0;entryX=0.5;entryY=0;entryDx=0;entryDy=0;fontSize=14;" edge="1" parent="1c1d494c118603dd-4" source="Nml4itM5zu7aC6ovKBKi-31" target="Nml4itM5zu7aC6ovKBKi-11">
          <mxGeometry relative="1" as="geometry" />
        </mxCell>
        <mxCell id="Nml4itM5zu7aC6ovKBKi-31" value="" style="whiteSpace=wrap;html=1;rounded=0;shadow=0;comic=0;labelBackgroundColor=none;strokeWidth=1;fillColor=#000000;fontFamily=Verdana;fontSize=14;align=center;rotation=0;" vertex="1" parent="1c1d494c118603dd-4">
          <mxGeometry x="346.5" y="200" width="147" height="10" as="geometry" />
        </mxCell>
        <mxCell id="Nml4itM5zu7aC6ovKBKi-78" style="edgeStyle=orthogonalEdgeStyle;rounded=0;orthogonalLoop=1;jettySize=auto;html=1;exitX=0.5;exitY=1;exitDx=0;exitDy=0;entryX=0.5;entryY=0;entryDx=0;entryDy=0;fontSize=14;" edge="1" parent="1c1d494c118603dd-4" source="Nml4itM5zu7aC6ovKBKi-32" target="Nml4itM5zu7aC6ovKBKi-76">
          <mxGeometry relative="1" as="geometry" />
        </mxCell>
        <mxCell id="Nml4itM5zu7aC6ovKBKi-32" value="Окно работы с плагинами" style="rounded=1;whiteSpace=wrap;html=1;shadow=0;comic=0;labelBackgroundColor=none;strokeWidth=1;fontFamily=Verdana;fontSize=14;align=center;arcSize=50;" vertex="1" parent="1c1d494c118603dd-4">
          <mxGeometry x="20" y="240" width="120" height="50" as="geometry" />
        </mxCell>
        <mxCell id="Nml4itM5zu7aC6ovKBKi-75" style="edgeStyle=orthogonalEdgeStyle;rounded=0;orthogonalLoop=1;jettySize=auto;html=1;exitX=0.5;exitY=1;exitDx=0;exitDy=0;entryX=0;entryY=0.5;entryDx=0;entryDy=0;fontSize=14;" edge="1" parent="1c1d494c118603dd-4" source="Nml4itM5zu7aC6ovKBKi-41" target="Nml4itM5zu7aC6ovKBKi-71">
          <mxGeometry relative="1" as="geometry" />
        </mxCell>
        <mxCell id="Nml4itM5zu7aC6ovKBKi-41" value="Воспроизвести трек" style="rounded=1;whiteSpace=wrap;html=1;shadow=0;comic=0;labelBackgroundColor=none;strokeWidth=1;fontFamily=Verdana;fontSize=14;align=center;arcSize=50;" vertex="1" parent="1c1d494c118603dd-4">
          <mxGeometry x="280" y="320" width="120" height="50" as="geometry" />
        </mxCell>
        <mxCell id="Nml4itM5zu7aC6ovKBKi-97" style="edgeStyle=orthogonalEdgeStyle;rounded=0;orthogonalLoop=1;jettySize=auto;html=1;exitX=0.5;exitY=1;exitDx=0;exitDy=0;entryX=0.5;entryY=0;entryDx=0;entryDy=0;fontSize=14;" edge="1" parent="1c1d494c118603dd-4" source="Nml4itM5zu7aC6ovKBKi-51" target="Nml4itM5zu7aC6ovKBKi-90">
          <mxGeometry relative="1" as="geometry" />
        </mxCell>
        <mxCell id="Nml4itM5zu7aC6ovKBKi-51" value="Окно работы с плейлистами" style="rounded=1;whiteSpace=wrap;html=1;shadow=0;comic=0;labelBackgroundColor=none;strokeWidth=1;fontFamily=Verdana;fontSize=14;align=center;arcSize=50;" vertex="1" parent="1c1d494c118603dd-4">
          <mxGeometry x="700" y="240" width="120" height="50" as="geometry" />
        </mxCell>
        <mxCell id="Nml4itM5zu7aC6ovKBKi-58" value="Нет" style="edgeStyle=orthogonalEdgeStyle;rounded=0;orthogonalLoop=1;jettySize=auto;html=1;exitX=0;exitY=0.5;exitDx=0;exitDy=0;entryX=0.5;entryY=0;entryDx=0;entryDy=0;fontSize=14;" edge="1" parent="1c1d494c118603dd-4" source="Nml4itM5zu7aC6ovKBKi-11" target="Nml4itM5zu7aC6ovKBKi-41">
          <mxGeometry relative="1" as="geometry" />
        </mxCell>
        <mxCell id="Nml4itM5zu7aC6ovKBKi-66" value="Да" style="edgeStyle=orthogonalEdgeStyle;rounded=0;orthogonalLoop=1;jettySize=auto;html=1;exitX=1;exitY=0.5;exitDx=0;exitDy=0;entryX=0.5;entryY=0;entryDx=0;entryDy=0;fontSize=14;" edge="1" parent="1c1d494c118603dd-4" source="Nml4itM5zu7aC6ovKBKi-11" target="Nml4itM5zu7aC6ovKBKi-59">
          <mxGeometry relative="1" as="geometry" />
        </mxCell>
        <mxCell id="Nml4itM5zu7aC6ovKBKi-11" value="Плейлист" style="rhombus;whiteSpace=wrap;html=1;fontSize=14;" vertex="1" parent="1c1d494c118603dd-4">
          <mxGeometry x="360" y="240" width="120" height="50" as="geometry" />
        </mxCell>
        <mxCell id="Nml4itM5zu7aC6ovKBKi-67" value="Да" style="edgeStyle=orthogonalEdgeStyle;rounded=0;orthogonalLoop=1;jettySize=auto;html=1;exitX=0.5;exitY=1;exitDx=0;exitDy=0;entryX=0.5;entryY=0;entryDx=0;entryDy=0;fontSize=14;" edge="1" parent="1c1d494c118603dd-4" source="Nml4itM5zu7aC6ovKBKi-59" target="Nml4itM5zu7aC6ovKBKi-57">
          <mxGeometry relative="1" as="geometry" />
        </mxCell>
        <mxCell id="Nml4itM5zu7aC6ovKBKi-72" value="Нет" style="edgeStyle=orthogonalEdgeStyle;rounded=0;orthogonalLoop=1;jettySize=auto;html=1;exitX=0;exitY=0.5;exitDx=0;exitDy=0;entryX=0.5;entryY=0;entryDx=0;entryDy=0;fontSize=14;" edge="1" parent="1c1d494c118603dd-4" source="Nml4itM5zu7aC6ovKBKi-59" target="Nml4itM5zu7aC6ovKBKi-71">
          <mxGeometry relative="1" as="geometry" />
        </mxCell>
        <mxCell id="Nml4itM5zu7aC6ovKBKi-59" value="Есть трек" style="rhombus;whiteSpace=wrap;html=1;fontSize=14;" vertex="1" parent="1c1d494c118603dd-4">
          <mxGeometry x="440" y="320" width="120" height="50" as="geometry" />
        </mxCell>
        <mxCell id="Nml4itM5zu7aC6ovKBKi-68" style="edgeStyle=orthogonalEdgeStyle;rounded=0;orthogonalLoop=1;jettySize=auto;html=1;exitX=1;exitY=0.5;exitDx=0;exitDy=0;entryX=1;entryY=0.5;entryDx=0;entryDy=0;fontSize=14;" edge="1" parent="1c1d494c118603dd-4" source="Nml4itM5zu7aC6ovKBKi-57" target="Nml4itM5zu7aC6ovKBKi-59">
          <mxGeometry relative="1" as="geometry" />
        </mxCell>
        <mxCell id="Nml4itM5zu7aC6ovKBKi-57" value="Воспроизвести трек" style="rounded=1;whiteSpace=wrap;html=1;shadow=0;comic=0;labelBackgroundColor=none;strokeWidth=1;fontFamily=Verdana;fontSize=14;align=center;arcSize=50;" vertex="1" parent="1c1d494c118603dd-4">
          <mxGeometry x="440" y="400" width="120" height="50" as="geometry" />
        </mxCell>
        <mxCell id="Nml4itM5zu7aC6ovKBKi-106" style="edgeStyle=orthogonalEdgeStyle;rounded=0;orthogonalLoop=1;jettySize=auto;html=1;exitX=0.5;exitY=1;exitDx=0;exitDy=0;entryX=0.5;entryY=0;entryDx=0;entryDy=0;" edge="1" parent="1c1d494c118603dd-4" source="Nml4itM5zu7aC6ovKBKi-71" target="Nml4itM5zu7aC6ovKBKi-103">
          <mxGeometry relative="1" as="geometry" />
        </mxCell>
        <mxCell id="Nml4itM5zu7aC6ovKBKi-71" value="Конец" style="rounded=1;whiteSpace=wrap;html=1;shadow=0;comic=0;labelBackgroundColor=none;strokeWidth=1;fontFamily=Verdana;fontSize=14;align=center;arcSize=50;" vertex="1" parent="1c1d494c118603dd-4">
          <mxGeometry x="360" y="480" width="120" height="50" as="geometry" />
        </mxCell>
        <mxCell id="Nml4itM5zu7aC6ovKBKi-82" value="Да" style="edgeStyle=orthogonalEdgeStyle;rounded=0;orthogonalLoop=1;jettySize=auto;html=1;exitX=0.5;exitY=1;exitDx=0;exitDy=0;entryX=0.5;entryY=0;entryDx=0;entryDy=0;fontSize=14;" edge="1" parent="1c1d494c118603dd-4" source="Nml4itM5zu7aC6ovKBKi-76" target="Nml4itM5zu7aC6ovKBKi-80">
          <mxGeometry relative="1" as="geometry" />
        </mxCell>
        <mxCell id="Nml4itM5zu7aC6ovKBKi-83" value="Нет" style="edgeStyle=orthogonalEdgeStyle;rounded=0;orthogonalLoop=1;jettySize=auto;html=1;exitX=1;exitY=0.5;exitDx=0;exitDy=0;entryX=0.5;entryY=0;entryDx=0;entryDy=0;fontSize=14;" edge="1" parent="1c1d494c118603dd-4" source="Nml4itM5zu7aC6ovKBKi-76" target="Nml4itM5zu7aC6ovKBKi-81">
          <mxGeometry relative="1" as="geometry">
            <Array as="points">
              <mxPoint x="160" y="345" />
              <mxPoint x="160" y="460" />
              <mxPoint x="80" y="460" />
            </Array>
          </mxGeometry>
        </mxCell>
        <mxCell id="Nml4itM5zu7aC6ovKBKi-76" value="Установить плагин" style="rhombus;whiteSpace=wrap;html=1;fontSize=14;" vertex="1" parent="1c1d494c118603dd-4">
          <mxGeometry x="20" y="320" width="120" height="50" as="geometry" />
        </mxCell>
        <mxCell id="Nml4itM5zu7aC6ovKBKi-80" value="Установить плагин" style="rounded=1;whiteSpace=wrap;html=1;shadow=0;comic=0;labelBackgroundColor=none;strokeWidth=1;fontFamily=Verdana;fontSize=14;align=center;arcSize=50;" vertex="1" parent="1c1d494c118603dd-4">
          <mxGeometry x="20" y="400" width="120" height="50" as="geometry" />
        </mxCell>
        <mxCell id="Nml4itM5zu7aC6ovKBKi-85" value="Да" style="edgeStyle=orthogonalEdgeStyle;rounded=0;orthogonalLoop=1;jettySize=auto;html=1;exitX=0.5;exitY=1;exitDx=0;exitDy=0;entryX=0.5;entryY=0;entryDx=0;entryDy=0;fontSize=14;" edge="1" parent="1c1d494c118603dd-4" source="Nml4itM5zu7aC6ovKBKi-81" target="Nml4itM5zu7aC6ovKBKi-84">
          <mxGeometry relative="1" as="geometry" />
        </mxCell>
        <mxCell id="Nml4itM5zu7aC6ovKBKi-87" value="Нет" style="edgeStyle=orthogonalEdgeStyle;rounded=0;orthogonalLoop=1;jettySize=auto;html=1;exitX=1;exitY=0.5;exitDx=0;exitDy=0;fontSize=14;" edge="1" parent="1c1d494c118603dd-4" source="Nml4itM5zu7aC6ovKBKi-81" target="Nml4itM5zu7aC6ovKBKi-86">
          <mxGeometry relative="1" as="geometry">
            <Array as="points">
              <mxPoint x="160" y="505" />
              <mxPoint x="160" y="620" />
              <mxPoint x="80" y="620" />
            </Array>
          </mxGeometry>
        </mxCell>
        <mxCell id="Nml4itM5zu7aC6ovKBKi-81" value="Удалить плагин" style="rhombus;whiteSpace=wrap;html=1;fontSize=14;" vertex="1" parent="1c1d494c118603dd-4">
          <mxGeometry x="20" y="480" width="120" height="50" as="geometry" />
        </mxCell>
        <mxCell id="Nml4itM5zu7aC6ovKBKi-84" value="Установить плагин" style="rounded=1;whiteSpace=wrap;html=1;shadow=0;comic=0;labelBackgroundColor=none;strokeWidth=1;fontFamily=Verdana;fontSize=14;align=center;arcSize=50;" vertex="1" parent="1c1d494c118603dd-4">
          <mxGeometry x="20" y="560" width="120" height="50" as="geometry" />
        </mxCell>
        <mxCell id="Nml4itM5zu7aC6ovKBKi-107" style="edgeStyle=orthogonalEdgeStyle;rounded=0;orthogonalLoop=1;jettySize=auto;html=1;exitX=0.5;exitY=1;exitDx=0;exitDy=0;entryX=0.25;entryY=0;entryDx=0;entryDy=0;" edge="1" parent="1c1d494c118603dd-4" source="Nml4itM5zu7aC6ovKBKi-86" target="Nml4itM5zu7aC6ovKBKi-103">
          <mxGeometry relative="1" as="geometry">
            <Array as="points">
              <mxPoint x="80" y="880" />
              <mxPoint x="383" y="880" />
            </Array>
          </mxGeometry>
        </mxCell>
        <mxCell id="Nml4itM5zu7aC6ovKBKi-86" value="Закрыть окно" style="rounded=1;whiteSpace=wrap;html=1;shadow=0;comic=0;labelBackgroundColor=none;strokeWidth=1;fontFamily=Verdana;fontSize=14;align=center;arcSize=50;" vertex="1" parent="1c1d494c118603dd-4">
          <mxGeometry x="20" y="640" width="120" height="50" as="geometry" />
        </mxCell>
        <mxCell id="Nml4itM5zu7aC6ovKBKi-88" value="Да" style="edgeStyle=orthogonalEdgeStyle;rounded=0;orthogonalLoop=1;jettySize=auto;html=1;exitX=0.5;exitY=1;exitDx=0;exitDy=0;entryX=0.5;entryY=0;entryDx=0;entryDy=0;fontSize=14;" edge="1" source="Nml4itM5zu7aC6ovKBKi-90" target="Nml4itM5zu7aC6ovKBKi-91" parent="1c1d494c118603dd-4">
          <mxGeometry relative="1" as="geometry" />
        </mxCell>
        <mxCell id="Nml4itM5zu7aC6ovKBKi-89" value="Нет" style="edgeStyle=orthogonalEdgeStyle;rounded=0;orthogonalLoop=1;jettySize=auto;html=1;exitX=1;exitY=0.5;exitDx=0;exitDy=0;entryX=0.5;entryY=0;entryDx=0;entryDy=0;fontSize=14;" edge="1" source="Nml4itM5zu7aC6ovKBKi-90" target="Nml4itM5zu7aC6ovKBKi-94" parent="1c1d494c118603dd-4">
          <mxGeometry relative="1" as="geometry">
            <Array as="points">
              <mxPoint x="680" y="345" />
              <mxPoint x="680" y="460" />
              <mxPoint x="760" y="460" />
            </Array>
          </mxGeometry>
        </mxCell>
        <mxCell id="Nml4itM5zu7aC6ovKBKi-90" value="Создать пллейлист" style="rhombus;whiteSpace=wrap;html=1;fontSize=14;" vertex="1" parent="1c1d494c118603dd-4">
          <mxGeometry x="700" y="320" width="120" height="50" as="geometry" />
        </mxCell>
        <mxCell id="Nml4itM5zu7aC6ovKBKi-91" value="Создать плейлист" style="rounded=1;whiteSpace=wrap;html=1;shadow=0;comic=0;labelBackgroundColor=none;strokeWidth=1;fontFamily=Verdana;fontSize=14;align=center;arcSize=50;" vertex="1" parent="1c1d494c118603dd-4">
          <mxGeometry x="700" y="400" width="120" height="50" as="geometry" />
        </mxCell>
        <mxCell id="Nml4itM5zu7aC6ovKBKi-92" value="Да" style="edgeStyle=orthogonalEdgeStyle;rounded=0;orthogonalLoop=1;jettySize=auto;html=1;exitX=0.5;exitY=1;exitDx=0;exitDy=0;entryX=0.5;entryY=0;entryDx=0;entryDy=0;fontSize=14;" edge="1" source="Nml4itM5zu7aC6ovKBKi-94" target="Nml4itM5zu7aC6ovKBKi-95" parent="1c1d494c118603dd-4">
          <mxGeometry relative="1" as="geometry" />
        </mxCell>
        <mxCell id="Nml4itM5zu7aC6ovKBKi-101" value="Нет" style="edgeStyle=orthogonalEdgeStyle;rounded=0;orthogonalLoop=1;jettySize=auto;html=1;exitX=0;exitY=0.5;exitDx=0;exitDy=0;entryX=0.5;entryY=0;entryDx=0;entryDy=0;" edge="1" parent="1c1d494c118603dd-4" source="Nml4itM5zu7aC6ovKBKi-94" target="Nml4itM5zu7aC6ovKBKi-99">
          <mxGeometry relative="1" as="geometry">
            <Array as="points">
              <mxPoint x="680" y="505" />
              <mxPoint x="680" y="620" />
              <mxPoint x="760" y="620" />
            </Array>
          </mxGeometry>
        </mxCell>
        <mxCell id="Nml4itM5zu7aC6ovKBKi-94" value="Удалить плейлист" style="rhombus;whiteSpace=wrap;html=1;fontSize=14;" vertex="1" parent="1c1d494c118603dd-4">
          <mxGeometry x="700" y="480" width="120" height="50" as="geometry" />
        </mxCell>
        <mxCell id="Nml4itM5zu7aC6ovKBKi-95" value="Удалить плейлист" style="rounded=1;whiteSpace=wrap;html=1;shadow=0;comic=0;labelBackgroundColor=none;strokeWidth=1;fontFamily=Verdana;fontSize=14;align=center;arcSize=50;" vertex="1" parent="1c1d494c118603dd-4">
          <mxGeometry x="700" y="560" width="120" height="50" as="geometry" />
        </mxCell>
        <mxCell id="Nml4itM5zu7aC6ovKBKi-105" style="edgeStyle=orthogonalEdgeStyle;rounded=0;orthogonalLoop=1;jettySize=auto;html=1;exitX=0.5;exitY=1;exitDx=0;exitDy=0;entryX=0.75;entryY=0;entryDx=0;entryDy=0;" edge="1" parent="1c1d494c118603dd-4" source="Nml4itM5zu7aC6ovKBKi-96" target="Nml4itM5zu7aC6ovKBKi-103">
          <mxGeometry relative="1" as="geometry" />
        </mxCell>
        <mxCell id="Nml4itM5zu7aC6ovKBKi-96" value="Закрыть окно" style="rounded=1;whiteSpace=wrap;html=1;shadow=0;comic=0;labelBackgroundColor=none;strokeWidth=1;fontFamily=Verdana;fontSize=14;align=center;arcSize=50;" vertex="1" parent="1c1d494c118603dd-4">
          <mxGeometry x="700" y="800" width="120" height="50" as="geometry" />
        </mxCell>
        <mxCell id="Nml4itM5zu7aC6ovKBKi-98" value="Да" style="edgeStyle=orthogonalEdgeStyle;rounded=0;orthogonalLoop=1;jettySize=auto;html=1;exitX=0.5;exitY=1;exitDx=0;exitDy=0;entryX=0.5;entryY=0;entryDx=0;entryDy=0;fontSize=14;" edge="1" source="Nml4itM5zu7aC6ovKBKi-99" target="Nml4itM5zu7aC6ovKBKi-100" parent="1c1d494c118603dd-4">
          <mxGeometry relative="1" as="geometry" />
        </mxCell>
        <mxCell id="Nml4itM5zu7aC6ovKBKi-102" style="edgeStyle=orthogonalEdgeStyle;rounded=0;orthogonalLoop=1;jettySize=auto;html=1;exitX=0;exitY=0.5;exitDx=0;exitDy=0;entryX=0.5;entryY=0;entryDx=0;entryDy=0;" edge="1" parent="1c1d494c118603dd-4" source="Nml4itM5zu7aC6ovKBKi-99" target="Nml4itM5zu7aC6ovKBKi-96">
          <mxGeometry relative="1" as="geometry">
            <Array as="points">
              <mxPoint x="680" y="665" />
              <mxPoint x="680" y="780" />
              <mxPoint x="760" y="780" />
            </Array>
          </mxGeometry>
        </mxCell>
        <mxCell id="Nml4itM5zu7aC6ovKBKi-99" value="Изменить плейлист" style="rhombus;whiteSpace=wrap;html=1;fontSize=14;" vertex="1" parent="1c1d494c118603dd-4">
          <mxGeometry x="700" y="640" width="120" height="50" as="geometry" />
        </mxCell>
        <mxCell id="Nml4itM5zu7aC6ovKBKi-100" value="Изменить плейлист" style="rounded=1;whiteSpace=wrap;html=1;shadow=0;comic=0;labelBackgroundColor=none;strokeWidth=1;fontFamily=Verdana;fontSize=14;align=center;arcSize=50;" vertex="1" parent="1c1d494c118603dd-4">
          <mxGeometry x="700" y="720" width="120" height="50" as="geometry" />
        </mxCell>
        <mxCell id="Nml4itM5zu7aC6ovKBKi-109" style="edgeStyle=orthogonalEdgeStyle;rounded=0;orthogonalLoop=1;jettySize=auto;html=1;exitX=0.5;exitY=1;exitDx=0;exitDy=0;entryX=0.5;entryY=0;entryDx=0;entryDy=0;" edge="1" parent="1c1d494c118603dd-4" source="Nml4itM5zu7aC6ovKBKi-103" target="Nml4itM5zu7aC6ovKBKi-108">
          <mxGeometry relative="1" as="geometry" />
        </mxCell>
        <mxCell id="Nml4itM5zu7aC6ovKBKi-103" value="" style="whiteSpace=wrap;html=1;rounded=0;shadow=0;comic=0;labelBackgroundColor=none;strokeWidth=1;fillColor=#000000;fontFamily=Verdana;fontSize=14;align=center;rotation=0;" vertex="1" parent="1c1d494c118603dd-4">
          <mxGeometry x="346.5" y="910" width="147" height="10" as="geometry" />
        </mxCell>
        <mxCell id="Nml4itM5zu7aC6ovKBKi-110" style="edgeStyle=orthogonalEdgeStyle;rounded=0;orthogonalLoop=1;jettySize=auto;html=1;exitX=0.5;exitY=1;exitDx=0;exitDy=0;entryX=0.5;entryY=0;entryDx=0;entryDy=0;" edge="1" parent="1c1d494c118603dd-4" source="Nml4itM5zu7aC6ovKBKi-108" target="60571a20871a0731-5">
          <mxGeometry relative="1" as="geometry" />
        </mxCell>
        <mxCell id="Nml4itM5zu7aC6ovKBKi-108" value="Закрыть аудиоплеер" style="rounded=1;whiteSpace=wrap;html=1;shadow=0;comic=0;labelBackgroundColor=none;strokeWidth=1;fontFamily=Verdana;fontSize=14;align=center;arcSize=50;" vertex="1" parent="1c1d494c118603dd-4">
          <mxGeometry x="360" y="960" width="120" height="50" as="geometry" />
        </mxCell>
      </root>
    </mxGraphModel>
  </diagram>
</mxfile>
